<svg width="23" height="21" viewBox="0 0 23 21" fill="none" xmlns="http://www.w3.org/2000/svg">
<path d="M12.7206 2.40624L12.7203 2.40649L11.8739 3.35805L11.5003 3.778L11.1267 3.35805L10.2802 2.40649L10.2797 2.40588C8.28247 0.153317 5.09737 -0.168917 2.9764 1.80274C0.482212 4.12523 0.344816 8.3243 2.58455 10.8503L10.8987 20.2156C10.8987 20.2156 10.8988 20.2156 10.8988 20.2157C11.237 20.5963 11.7593 20.5963 12.0975 20.2157C12.0975 20.2156 12.0975 20.2156 12.0976 20.2156L20.4119 10.85L20.412 10.8499C22.6556 8.32408 22.5183 4.12534 20.0243 1.80286L12.7206 2.40624ZM12.7206 2.40624C14.7223 0.153062 17.9032 -0.168719 20.024 1.8026L12.7206 2.40624Z" stroke="#101010"/>
</svg>
